<?xml version="1.0" encoding="UTF-8" standalone="no"?>
<svg
   xmlns:dc="http://purl.org/dc/elements/1.1/"
   xmlns:cc="http://creativecommons.org/ns#"
   xmlns:rdf="http://www.w3.org/1999/02/22-rdf-syntax-ns#"
   xmlns:svg="http://www.w3.org/2000/svg"
   xmlns="http://www.w3.org/2000/svg"
   id="svg136"
   version="1.1"
   viewBox="0 0 90.488 30.162"
   height="114"
   width="342">
  <metadata
     id="metadata142">
    <rdf:RDF>
      <cc:Work
         rdf:about="">
        <dc:format>image/svg+xml</dc:format>
        <dc:type
           rdf:resource="http://purl.org/dc/dcmitype/StillImage" />
        <dc:title></dc:title>
      </cc:Work>
    </rdf:RDF>
  </metadata>
  <defs
     id="defs140" />
  <path
     id="path96"
     stroke-width=".28552"
     d="M13.265 29.377L20.546 9.02h-4.654l-4.94 15.619h-.085L5.699 9.019H.816l7.395 20.358z"
     stroke-miterlimit="10"
     stroke="#000"
     fill-rule="evenodd"
     clip-rule="evenodd"
     class="st0" />
  <path
     id="path98"
     d="M13.265 29.377L20.546 9.02h-4.654l-4.94 15.619h-.085L5.699 9.019H.816l7.395 20.358z"
     stroke-miterlimit="3.864"
     stroke-linejoin="round"
     stroke-linecap="round"
     stroke-width=".42828"
     stroke="#000"
     fill-rule="evenodd"
     clip-rule="evenodd"
     class="st1" />
  <path
     id="path100"
     stroke-width=".28552"
     d="M44.045 1.253h4.482v4.255h-4.482z"
     stroke-miterlimit="10"
     stroke="#000"
     fill-rule="evenodd"
     clip-rule="evenodd"
     class="st0" />
  <path
     id="path102"
     d="M44.045 1.253h4.482v4.255h-4.482z"
     stroke-miterlimit="3.864"
     stroke-linejoin="round"
     stroke-linecap="round"
     stroke-width=".42828"
     stroke="#000"
     fill-rule="evenodd"
     clip-rule="evenodd"
     class="st1" />
  <path
     id="path104"
     stroke-width=".28552"
     stroke-miterlimit="10"
     stroke="#000"
     d="M40.39 14.559a9.844 9.844 0 0 0-3.37-4.369c-1.513-1.113-3.369-1.684-5.51-1.713-2.027.029-3.769.514-5.254 1.513-1.456.971-2.598 2.284-3.397 3.883-.8 1.628-1.2 3.398-1.2 5.368.03 3.198.886 5.768 2.599 7.71 1.713 1.94 4.168 2.94 7.366 2.997 2.256 0 4.226-.6 5.91-1.798 1.657-1.2 2.77-2.884 3.313-5.14h-4.255c-.4 1.114-.999 1.97-1.798 2.541-.8.571-1.856.857-3.17.857-1.856-.057-3.255-.657-4.14-1.827-.885-1.171-1.342-2.57-1.342-4.226h14.962c.257-2.056 0-3.998-.714-5.796zm-14.248 2.855c.086-1.542.6-2.827 1.542-3.826.97-1 2.227-1.513 3.798-1.57 1.541.057 2.74.6 3.626 1.627.885 1.056 1.399 2.284 1.484 3.769z"
     class="st2" />
  <path
     id="path106"
     stroke-miterlimit="3.864"
     stroke-linejoin="round"
     stroke-linecap="round"
     stroke-width=".42828"
     stroke="#000"
     fill-rule="evenodd"
     clip-rule="evenodd"
     d="M26.142 17.414c.086-1.542.6-2.827 1.542-3.826.97-1 2.227-1.513 3.798-1.57 1.541.057 2.74.6 3.626 1.627.885 1.056 1.399 2.284 1.484 3.769z"
     class="st1" />
  <path
     id="path108"
     stroke-miterlimit="3.864"
     stroke-linejoin="round"
     stroke-linecap="round"
     stroke-width=".42828"
     stroke="#000"
     fill-rule="evenodd"
     clip-rule="evenodd"
     d="M41.132 20.355c.229-2.056 0-3.998-.742-5.796a9.844 9.844 0 0 0-3.37-4.369c-1.513-1.113-3.369-1.684-5.51-1.713-2.027.029-3.769.514-5.254 1.513-1.456.971-2.598 2.284-3.397 3.883-.8 1.628-1.2 3.398-1.2 5.368.03 3.198.886 5.768 2.599 7.71 1.713 1.94 4.168 2.94 7.366 2.997 2.256 0 4.226-.6 5.91-1.798 1.657-1.2 2.77-2.884 3.313-5.14h-4.255c-.4 1.114-.999 1.97-1.798 2.541-.8.571-1.856.857-3.17.857-1.856-.057-3.255-.657-4.14-1.827-.885-1.171-1.342-2.57-1.342-4.226z"
     class="st1" />
  <path
     id="path110"
     stroke-miterlimit="3.864"
     stroke-linejoin="round"
     stroke-linecap="round"
     stroke-width=".42828"
     stroke="#000"
     fill-rule="evenodd"
     clip-rule="evenodd"
     d="M26.142 17.414c.086-1.542.6-2.827 1.542-3.826.97-1 2.227-1.513 3.798-1.57 1.541.057 2.74.6 3.626 1.627.885 1.056 1.399 2.284 1.484 3.769z"
     class="st1" />
  <path
     id="path112"
     stroke-miterlimit="3.864"
     stroke-linejoin="round"
     stroke-linecap="round"
     stroke-width=".42828"
     stroke="#000"
     fill-rule="evenodd"
     clip-rule="evenodd"
     d="M41.132 20.355c.229-2.056 0-3.998-.742-5.796a9.844 9.844 0 0 0-3.37-4.369c-1.513-1.113-3.369-1.684-5.51-1.713-2.027.029-3.769.514-5.254 1.513-1.456.971-2.598 2.284-3.397 3.883-.8 1.628-1.2 3.398-1.2 5.368.03 3.198.886 5.768 2.599 7.71 1.713 1.94 4.168 2.94 7.366 2.997 2.256 0 4.226-.6 5.91-1.798 1.657-1.2 2.77-2.884 3.313-5.14h-4.255c-.4 1.114-.999 1.97-1.798 2.541-.8.571-1.856.857-3.17.857-1.856-.057-3.255-.657-4.14-1.827-.885-1.171-1.342-2.57-1.342-4.226z"
     class="st1" />
  <path
     id="path114"
     stroke-miterlimit="3.864"
     stroke-linejoin="round"
     stroke-linecap="round"
     stroke-width=".42828"
     stroke="#000"
     fill-rule="evenodd"
     clip-rule="evenodd"
     d="M41.132 20.355c.229-2.056 0-3.998-.742-5.796a9.844 9.844 0 0 0-3.37-4.369c-1.513-1.113-3.369-1.684-5.51-1.713-2.027.029-3.769.514-5.254 1.513-1.456.971-2.598 2.284-3.397 3.883-.8 1.628-1.2 3.398-1.2 5.368.03 3.198.886 5.768 2.599 7.71 1.713 1.94 4.168 2.94 7.366 2.997 2.256 0 4.226-.6 5.91-1.798 1.657-1.2 2.77-2.884 3.313-5.14h-4.255c-.4 1.114-.999 1.97-1.798 2.541-.8.571-1.856.857-3.17.857-1.856-.057-3.255-.657-4.14-1.827-.885-1.171-1.342-2.57-1.342-4.226z"
     class="st1" />
  <path
     id="path116"
     stroke-miterlimit="3.864"
     stroke-linejoin="round"
     stroke-linecap="round"
     stroke-width=".42828"
     stroke="#000"
     fill-rule="evenodd"
     fill="#fff"
     clip-rule="evenodd"
     d="M26.142 17.414c.086-1.542.6-2.827 1.542-3.826.97-1 2.227-1.513 3.798-1.57 1.541.057 2.74.6 3.626 1.627.885 1.056 1.399 2.284 1.484 3.769z"
     class="st3" />
  <g
     id="g122">
    <path
       id="path118"
       stroke-width=".28552"
       d="M44.045 9.02h4.482v20.357h-4.482z"
       stroke-miterlimit="10"
       stroke="#000"
       fill-rule="evenodd"
       clip-rule="evenodd"
       class="st0" />
    <path
       id="path120"
       d="M44.045 9.02h4.482v20.357h-4.482z"
       stroke-miterlimit="3.864"
       stroke-linejoin="round"
       stroke-linecap="round"
       stroke-width=".42828"
       stroke="#000"
       fill-rule="evenodd"
       clip-rule="evenodd"
       class="st1" />
  </g>
  <g
     id="g128">
    <path
       id="path124"
       stroke-width=".28552"
       stroke-miterlimit="10"
       stroke="#000"
       fill-rule="evenodd"
       clip-rule="evenodd"
       d="M51.725 22.839c.086 2.398.97 4.168 2.627 5.34 1.656 1.17 3.797 1.74 6.396 1.74 1.427 0 2.855-.2 4.225-.627 1.37-.429 2.542-1.142 3.455-2.113.914-.971 1.4-2.256 1.428-3.855-.029-1.313-.343-2.37-.97-3.17-.63-.77-1.457-1.37-2.428-1.798a16.35 16.35 0 0 0-3.17-.97 148.894 148.894 0 0 1-3.197-.686c-1-.228-1.827-.542-2.456-.914-.628-.4-.97-.942-.97-1.656.028-.57.257-1.028.685-1.342a3.27 3.27 0 0 1 1.485-.6c.57-.085 1.085-.142 1.541-.142 1-.029 1.885.171 2.656.571.77.4 1.256 1.114 1.485 2.17h4.625c-.343-2.256-1.285-3.855-2.884-4.825-1.599-.971-3.455-1.456-5.625-1.428-1.284 0-2.54.171-3.854.514-1.285.371-2.399.97-3.284 1.827-.885.857-1.342 2.028-1.37 3.484.057 2.027.742 3.455 2.027 4.311 1.285.857 2.798 1.428 4.511 1.742 1.114.228 2.17.457 3.141.685 1 .229 1.799.543 2.456.942.656.4.999 1 1.056 1.77 0 .772-.228 1.343-.742 1.742-.514.4-1.114.657-1.828.771-.713.143-1.37.2-1.941.172-1.228.028-2.256-.257-3.112-.8-.857-.542-1.342-1.456-1.485-2.741h-4.483z"
       class="st0" />
    <path
       id="path126"
       stroke-miterlimit="3.864"
       stroke-linejoin="round"
       stroke-linecap="round"
       stroke-width=".42828"
       stroke="#000"
       fill-rule="evenodd"
       clip-rule="evenodd"
       d="M51.725 22.839c.086 2.398.97 4.168 2.627 5.34 1.656 1.17 3.797 1.74 6.396 1.74 1.427 0 2.855-.2 4.225-.627 1.37-.429 2.542-1.142 3.455-2.113.914-.971 1.4-2.256 1.428-3.855-.029-1.313-.343-2.37-.97-3.17-.63-.77-1.457-1.37-2.428-1.798a16.35 16.35 0 0 0-3.17-.97 148.894 148.894 0 0 1-3.197-.686c-1-.228-1.827-.542-2.456-.914-.628-.4-.97-.942-.97-1.656.028-.57.257-1.028.685-1.342a3.27 3.27 0 0 1 1.485-.6c.57-.085 1.085-.142 1.541-.142 1-.029 1.885.171 2.656.571.77.4 1.256 1.114 1.485 2.17h4.625c-.343-2.256-1.285-3.855-2.884-4.825-1.599-.971-3.455-1.456-5.625-1.428-1.284 0-2.54.171-3.854.514-1.285.371-2.399.97-3.284 1.827-.885.857-1.342 2.028-1.37 3.484.057 2.027.742 3.455 2.027 4.311 1.285.857 2.798 1.428 4.511 1.742 1.114.228 2.17.457 3.141.685 1 .229 1.799.543 2.456.942.656.4.999 1 1.056 1.77 0 .772-.228 1.343-.742 1.742-.514.4-1.114.657-1.828.771-.713.143-1.37.2-1.941.172-1.228.028-2.256-.257-3.112-.8-.857-.542-1.342-1.456-1.485-2.741h-4.483z"
       class="st1" />
  </g>
  <g
     id="g134">
    <path
       id="path130"
       stroke-width=".28552"
       stroke-miterlimit="10"
       stroke="#000"
       fill-rule="evenodd"
       clip-rule="evenodd"
       d="M71.54 22.839c.086 2.398.971 4.168 2.627 5.34 1.656 1.17 3.798 1.74 6.396 1.74 1.428 0 2.855-.2 4.226-.627 1.37-.429 2.54-1.142 3.455-2.113.913-.971 1.399-2.256 1.427-3.855-.028-1.313-.342-2.37-.97-3.17-.629-.77-1.457-1.37-2.428-1.798a16.35 16.35 0 0 0-3.169-.97 148.894 148.894 0 0 1-3.198-.686c-.999-.228-1.827-.542-2.455-.914-.628-.4-.971-.942-.971-1.656.029-.57.257-1.028.685-1.342a3.27 3.27 0 0 1 1.485-.6c.571-.085 1.085-.142 1.542-.142 1-.029 1.884.171 2.655.571.771.4 1.256 1.114 1.485 2.17h4.682c-.342-2.256-1.284-3.855-2.883-4.825-1.6-.971-3.455-1.456-5.625-1.428-1.285 0-2.541.171-3.855.514-1.285.371-2.398.97-3.283 1.827-.885.857-1.342 2.028-1.37 3.484.056 2.027.742 3.455 2.027 4.311 1.284.857 2.798 1.428 4.51 1.742 1.114.228 2.17.457 3.142.685.999.229 1.798.543 2.455.942.657.4 1 1 1.056 1.77 0 .772-.228 1.343-.742 1.742-.514.4-1.113.657-1.827.771-.714.143-1.37.2-1.942.172-1.228.028-2.255-.257-3.112-.8-.857-.542-1.342-1.456-1.485-2.741h-4.54z"
       class="st0" />
    <path
       id="path132"
       stroke-miterlimit="3.864"
       stroke-linejoin="round"
       stroke-linecap="round"
       stroke-width=".42828"
       stroke="#000"
       fill-rule="evenodd"
       clip-rule="evenodd"
       d="M71.54 22.839c.086 2.398.971 4.168 2.627 5.34 1.656 1.17 3.798 1.74 6.396 1.74 1.428 0 2.855-.2 4.226-.627 1.37-.429 2.54-1.142 3.455-2.113.913-.971 1.399-2.256 1.427-3.855-.028-1.313-.342-2.37-.97-3.17-.629-.77-1.457-1.37-2.428-1.798a16.35 16.35 0 0 0-3.169-.97 148.894 148.894 0 0 1-3.198-.686c-.999-.228-1.827-.542-2.455-.914-.628-.4-.971-.942-.971-1.656.029-.57.257-1.028.685-1.342a3.27 3.27 0 0 1 1.485-.6c.571-.085 1.085-.142 1.542-.142 1-.029 1.884.171 2.655.571.771.4 1.256 1.114 1.485 2.17h4.682c-.342-2.256-1.284-3.855-2.883-4.825-1.6-.971-3.455-1.456-5.625-1.428-1.285 0-2.541.171-3.855.514-1.285.371-2.398.97-3.283 1.827-.885.857-1.342 2.028-1.37 3.484.056 2.027.742 3.455 2.027 4.311 1.284.857 2.798 1.428 4.51 1.742 1.114.228 2.17.457 3.142.685.999.229 1.798.543 2.455.942.657.4 1 1 1.056 1.77 0 .772-.228 1.343-.742 1.742-.514.4-1.113.657-1.827.771-.714.143-1.37.2-1.942.172-1.228.028-2.255-.257-3.112-.8-.857-.542-1.342-1.456-1.485-2.741h-4.54z"
       class="st1" />
  </g>
</svg>
